<?xml version="1.0" encoding="utf-8"?>
<svg version="1.1" id="Layer_1" xmlns="http://www.w3.org/2000/svg" xmlns:xlink="http://www.w3.org/1999/xlink" x="0px" y="0px"
	 viewBox="0 0 240 240" enable-background="new 0 0 240 240" xml:space="preserve" class="logo">
<g>
	<path fill="#f6f6f6" stroke="#2E2D27" stroke-width="8" stroke-linejoin="round" stroke-miterlimit="10" d="M118.4,22.2
		c-53.6,0-95.3,87.2-95.3,194.3l0,0l15,1.2c0,0,0,0,0,0l14-1.2c0-95.7,17.8-181.7,66.2-182"/>
	<g>
		<path fill="#f6f6f6" stroke="#2E2D27" stroke-width="8" stroke-linejoin="round" stroke-miterlimit="10" d="M28.4,173.6
			c-4.4,0-6.5,0.7-9.4-1.8c-2.1-2.1-4.4-4.5-4.2-14.3c-0.1-6.4-0.2-12.8-0.2-19.2c0-5.3,0.1-51.9,0.1-51.9c0,0,13.6,0,13.6,0
			S28.4,173.6,28.4,173.6z"/>

			<rect x="28.4" y="67.9" fill="#f6f6f6" stroke="#2E2D27" stroke-width="8" stroke-linejoin="round" stroke-miterlimit="10" width="197" height="106"/>
		<text transform="matrix(1 0 0 1 48.757 110.0934)" font-family="'Lemondrop'" font-size="40.9651" letter-spacing="8">NEWS</text>
		<g>

				<circle fill="#2E2D27" stroke="#2E2D27" stroke-width="8" stroke-linejoin="round" stroke-miterlimit="10" cx="151.1" cy="147.8" r="16.9"/>

				<circle fill="#2E2D27" stroke="#2E2D27" stroke-width="8" stroke-linejoin="round" stroke-miterlimit="10" cx="102.6" cy="147.8" r="16.9"/>

				<rect x="101.4" y="134.9" fill="#2E2D27" stroke="#2E2D27" stroke-width="8" stroke-linejoin="round" stroke-miterlimit="10" width="46" height="17"/>
			<g>
				<circle fill="#f6f6f6" cx="152.3" cy="140.9" r="2.8"/>
				<circle fill="#f6f6f6" cx="145" cy="145.8" r="2.8"/>
				<circle fill="#f6f6f6" cx="157.2" cy="148.2" r="2.8"/>
				<circle fill="#f6f6f6" cx="149.9" cy="153" r="2.8"/>
			</g>
			<path fill="#f6f6f6" d="M105.4,154.9c0,1.7-1.3,3-3,3l0,0c-1.7,0-3-1.3-3-3v-14c0-1.7,1.3-3,3-3l0,0c1.7,0,3,1.3,3,3V154.9z"/>
			<path fill="#f6f6f6" d="M112.4,147.9c0,1.7-1.3,3-3,3h-14c-1.7,0-3-1.3-3-3l0,0c0-1.7,1.3-3,3-3h14
				C111,144.9,112.4,146.2,112.4,147.9L112.4,147.9z"/>
		</g>
	</g>
	<path fill="#f6f6f6" stroke="#2E2D27" stroke-width="8" stroke-linejoin="round" stroke-miterlimit="10" d="M118.4,22.2
		c53.6,0,95.3,87.2,95.3,194.3l0,0l-15,1.2c0,0,0,0,0,0l-14-1.2c0-95.7-17.8-181.7-66.2-182"/>
</g>
</svg>
